<svg width="295" height="142" viewBox="0 0 295 142" fill="none" xmlns="http://www.w3.org/2000/svg">
<rect y="65" width="295" height="77" rx="38.5" fill="white"/>
<path d="M45.512 95.248C47.272 95.248 48.816 95.592 50.144 96.28C51.488 96.968 52.52 97.952 53.24 99.232C53.976 100.496 54.344 101.968 54.344 103.648C54.344 105.328 53.976 106.8 53.24 108.064C52.52 109.312 51.488 110.28 50.144 110.968C48.816 111.656 47.272 112 45.512 112H39.656V95.248H45.512ZM45.392 109.144C47.152 109.144 48.512 108.664 49.472 107.704C50.432 106.744 50.912 105.392 50.912 103.648C50.912 101.904 50.432 100.544 49.472 99.568C48.512 98.576 47.152 98.08 45.392 98.08H43.016V109.144H45.392ZM66.3631 112.216C65.0831 112.216 63.9311 111.936 62.9071 111.376C61.8831 110.8 61.0751 109.992 60.4831 108.952C59.9071 107.912 59.6191 106.712 59.6191 105.352C59.6191 103.992 59.9151 102.792 60.5071 101.752C61.1151 100.712 61.9391 99.912 62.9791 99.352C64.0191 98.776 65.1791 98.488 66.4591 98.488C67.7391 98.488 68.8991 98.776 69.9391 99.352C70.9791 99.912 71.7951 100.712 72.3871 101.752C72.9951 102.792 73.2991 103.992 73.2991 105.352C73.2991 106.712 72.9871 107.912 72.3631 108.952C71.7551 109.992 70.9231 110.8 69.8671 111.376C68.8271 111.936 67.6591 112.216 66.3631 112.216ZM66.3631 109.288C66.9711 109.288 67.5391 109.144 68.0671 108.856C68.6111 108.552 69.0431 108.104 69.3631 107.512C69.6831 106.92 69.8431 106.2 69.8431 105.352C69.8431 104.088 69.5071 103.12 68.8351 102.448C68.1791 101.76 67.3711 101.416 66.4111 101.416C65.4511 101.416 64.6431 101.76 63.9871 102.448C63.3471 103.12 63.0271 104.088 63.0271 105.352C63.0271 106.616 63.3391 107.592 63.9631 108.28C64.6031 108.952 65.4031 109.288 66.3631 109.288ZM97.7958 98.704L93.9078 112H90.2838L87.8598 102.712L85.4358 112H81.7878L77.8758 98.704H81.2838L83.6358 108.832L86.1798 98.704H89.7318L92.2278 108.808L94.5798 98.704H97.7958ZM110.582 98.512C112.166 98.512 113.446 99.016 114.422 100.024C115.398 101.016 115.886 102.408 115.886 104.2V112H112.526V104.656C112.526 103.6 112.262 102.792 111.734 102.232C111.206 101.656 110.486 101.368 109.574 101.368C108.646 101.368 107.91 101.656 107.366 102.232C106.838 102.792 106.574 103.6 106.574 104.656V112H103.214V98.704H106.574V100.36C107.022 99.784 107.59 99.336 108.278 99.016C108.982 98.68 109.75 98.512 110.582 98.512ZM126.041 94.24V112H122.681V94.24H126.041ZM138.865 112.216C137.585 112.216 136.433 111.936 135.409 111.376C134.385 110.8 133.577 109.992 132.985 108.952C132.409 107.912 132.121 106.712 132.121 105.352C132.121 103.992 132.417 102.792 133.009 101.752C133.617 100.712 134.441 99.912 135.481 99.352C136.521 98.776 137.681 98.488 138.961 98.488C140.241 98.488 141.401 98.776 142.441 99.352C143.481 99.912 144.297 100.712 144.889 101.752C145.497 102.792 145.801 103.992 145.801 105.352C145.801 106.712 145.489 107.912 144.865 108.952C144.257 109.992 143.425 110.8 142.369 111.376C141.329 111.936 140.161 112.216 138.865 112.216ZM138.865 109.288C139.473 109.288 140.041 109.144 140.569 108.856C141.113 108.552 141.545 108.104 141.865 107.512C142.185 106.92 142.345 106.2 142.345 105.352C142.345 104.088 142.009 103.12 141.337 102.448C140.681 101.76 139.873 101.416 138.913 101.416C137.953 101.416 137.145 101.76 136.489 102.448C135.849 103.12 135.529 104.088 135.529 105.352C135.529 106.616 135.841 107.592 136.465 108.28C137.105 108.952 137.905 109.288 138.865 109.288ZM151.001 105.304C151.001 103.96 151.265 102.768 151.793 101.728C152.337 100.688 153.065 99.888 153.977 99.328C154.905 98.768 155.937 98.488 157.073 98.488C158.065 98.488 158.929 98.688 159.665 99.088C160.417 99.488 161.017 99.992 161.465 100.6V98.704H164.849V112H161.465V110.056C161.033 110.68 160.433 111.2 159.665 111.616C158.913 112.016 158.041 112.216 157.049 112.216C155.929 112.216 154.905 111.928 153.977 111.352C153.065 110.776 152.337 109.968 151.793 108.928C151.265 107.872 151.001 106.664 151.001 105.304ZM161.465 105.352C161.465 104.536 161.305 103.84 160.985 103.264C160.665 102.672 160.233 102.224 159.689 101.92C159.145 101.6 158.561 101.44 157.937 101.44C157.313 101.44 156.737 101.592 156.209 101.896C155.681 102.2 155.249 102.648 154.913 103.24C154.593 103.816 154.433 104.504 154.433 105.304C154.433 106.104 154.593 106.808 154.913 107.416C155.249 108.008 155.681 108.464 156.209 108.784C156.753 109.104 157.329 109.264 157.937 109.264C158.561 109.264 159.145 109.112 159.689 108.808C160.233 108.488 160.665 108.04 160.985 107.464C161.305 106.872 161.465 106.168 161.465 105.352ZM170.867 105.304C170.867 103.96 171.131 102.768 171.659 101.728C172.203 100.688 172.939 99.888 173.867 99.328C174.795 98.768 175.827 98.488 176.963 98.488C177.827 98.488 178.651 98.68 179.435 99.064C180.219 99.432 180.843 99.928 181.307 100.552V94.24H184.715V112H181.307V110.032C180.891 110.688 180.307 111.216 179.555 111.616C178.803 112.016 177.931 112.216 176.939 112.216C175.819 112.216 174.795 111.928 173.867 111.352C172.939 110.776 172.203 109.968 171.659 108.928C171.131 107.872 170.867 106.664 170.867 105.304ZM181.331 105.352C181.331 104.536 181.171 103.84 180.851 103.264C180.531 102.672 180.099 102.224 179.555 101.92C179.011 101.6 178.427 101.44 177.803 101.44C177.179 101.44 176.603 101.592 176.075 101.896C175.547 102.2 175.115 102.648 174.779 103.24C174.459 103.816 174.299 104.504 174.299 105.304C174.299 106.104 174.459 106.808 174.779 107.416C175.115 108.008 175.547 108.464 176.075 108.784C176.619 109.104 177.195 109.264 177.803 109.264C178.427 109.264 179.011 109.112 179.555 108.808C180.099 108.488 180.531 108.04 180.851 107.464C181.171 106.872 181.331 106.168 181.331 105.352ZM211.187 108.808H204.515L203.411 112H199.883L205.907 95.224H209.819L215.843 112H212.291L211.187 108.808ZM210.275 106.12L207.851 99.112L205.427 106.12H210.275ZM225.055 100.624C225.487 100.016 226.079 99.512 226.831 99.112C227.599 98.696 228.471 98.488 229.447 98.488C230.583 98.488 231.607 98.768 232.519 99.328C233.447 99.888 234.175 100.688 234.703 101.728C235.247 102.752 235.519 103.944 235.519 105.304C235.519 106.664 235.247 107.872 234.703 108.928C234.175 109.968 233.447 110.776 232.519 111.352C231.607 111.928 230.583 112.216 229.447 112.216C228.471 112.216 227.607 112.016 226.855 111.616C226.119 111.216 225.519 110.712 225.055 110.104V118.336H221.695V98.704H225.055V100.624ZM232.087 105.304C232.087 104.504 231.919 103.816 231.583 103.24C231.263 102.648 230.831 102.2 230.287 101.896C229.759 101.592 229.183 101.44 228.559 101.44C227.951 101.44 227.375 101.6 226.831 101.92C226.303 102.224 225.871 102.672 225.535 103.264C225.215 103.856 225.055 104.552 225.055 105.352C225.055 106.152 225.215 106.848 225.535 107.44C225.871 108.032 226.303 108.488 226.831 108.808C227.375 109.112 227.951 109.264 228.559 109.264C229.183 109.264 229.759 109.104 230.287 108.784C230.831 108.464 231.263 108.008 231.583 107.416C231.919 106.824 232.087 106.12 232.087 105.304ZM244.921 100.624C245.353 100.016 245.945 99.512 246.697 99.112C247.465 98.696 248.337 98.488 249.313 98.488C250.449 98.488 251.473 98.768 252.385 99.328C253.313 99.888 254.041 100.688 254.569 101.728C255.113 102.752 255.385 103.944 255.385 105.304C255.385 106.664 255.113 107.872 254.569 108.928C254.041 109.968 253.313 110.776 252.385 111.352C251.473 111.928 250.449 112.216 249.313 112.216C248.337 112.216 247.473 112.016 246.721 111.616C245.985 111.216 245.385 110.712 244.921 110.104V118.336H241.561V98.704H244.921V100.624ZM251.953 105.304C251.953 104.504 251.785 103.816 251.449 103.24C251.129 102.648 250.697 102.2 250.153 101.896C249.625 101.592 249.049 101.44 248.425 101.44C247.817 101.44 247.241 101.6 246.697 101.92C246.169 102.224 245.737 102.672 245.401 103.264C245.081 103.856 244.921 104.552 244.921 105.352C244.921 106.152 245.081 106.848 245.401 107.44C245.737 108.032 246.169 108.488 246.697 108.808C247.241 109.112 247.817 109.264 248.425 109.264C249.049 109.264 249.625 109.104 250.153 108.784C250.697 108.464 251.129 108.008 251.449 107.416C251.785 106.824 251.953 106.12 251.953 105.304Z" fill="#153484"/>
</svg>
